<?xml version="1.0" encoding="utf-8"?>
<svg data-v-6805eed4="" version="1.0" width="100%" height="100%" viewBox="94.262 37.471 113.419 129.977" style="margin: auto;" xmlns="http://www.w3.org/2000/svg">
  <g data-v-6805eed4="" class="iconmbgsvg" transform="matrix(1, 0, 0, 1, 94.721893, 37.85582)">
    <g fill="#000000" hollow-target="textNormalTran">
      <g>
        <rect fill="#000000" fill-opacity="0" stroke-width="2" x="0" y="0" width="112.5" height="129.20638566670493" class="image-rect"/>
        <svg x="0" y="0" width="112.5" height="129.20638566670493" filtersec="colorsb8733344372" class="image-svg-svg primary" style="overflow: visible;">
          <svg xmlns="http://www.w3.org/2000/svg" viewBox="0 0 87.06999206542969 100">
            <path fill="#333" d="M43.55 23.46l11.53 6.64 11.57 6.63v50l20.42-11.75v-50L65.31 12.51 43.55 0 23.13 11.72l20.42 11.74z"/>
            <path d="M64 64.82l-8.92 5.08-11.53 6.64L32 83.17l-8.85 5.08L43.55 100 52 95.13l12-6.88zM20.42 36.73L32 30.1l8.84-5.1-20.42-11.73-4.26 2.46L0 25v23.45l8.89-5.08 11.53-6.64z" fill="#DB4446"/>
            <path fill="#333" d="M20.42 63.27V39.93l-.03-.03L0 51.61v23.37L20.39 86.7l20.39-11.72v-.03l-8.8-5.05-11.56-6.63z"/>
          </svg>
        </svg>
      </g>
    </g>
  </g>
</svg>