<svg viewBox="0 0 180 200" xmlns="http://www.w3.org/2000/svg">
    <path d="M86.983 0.056c-47.586 0 -86.164 38.575 -86.164 86.163l0 21.541c0 47.589 38.578 86.163 86.164 86.163l86.163 0l0 -86.163l0 -21.54c0 -47.59 -38.577 -86.164 -86.163 -86.164" id="shape.secondary" fill="#b793e6"></path>
    <path d="M151.605 159.219l-29.918 0l0 -67.615c0 -19.135 -15.569 -34.704 -34.704 -34.704c-19.136 0 -34.705 15.569 -34.705 34.704l-16.754 0c0 -28.374 23.085 -51.458 51.459 -51.458c28.374 0 51.458 23.084 51.458 51.458l0 50.86l13.164 0l0 16.755zm-50.262 -51.459c0 7.932 -6.429 14.36 -14.36 14.36c-7.93 0 -14.36 -6.428 -14.36 -14.36c0 -7.93 6.43 -14.36 14.36 -14.36c7.931 0 14.36 6.43 14.36 14.36z" fill="#FFF"></path>
</svg>